<svg xmlns="http://www.w3.org/2000/svg" width="1100" height="760" viewBox="0 0 1100 760">
<defs><linearGradient id="bg" x1="0" y1="0" x2="1" y2="1"><stop stop-color="#050505"/><stop offset=".52" stop-color="#111827"/><stop offset="1" stop-color="#050505"/></linearGradient><filter id="shadow"><feDropShadow dx="0" dy="16" stdDeviation="18" flood-color="#000" flood-opacity=".45"/></filter></defs>
<rect width="100%" height="100%" fill="url(#bg)"/><circle cx="160" cy="90" r="250" fill="#facc15" opacity=".14"/><circle cx="900" cy="600" r="250" fill="#38bdf8" opacity=".10"/>
<text x="44" y="55" fill="#facc15" font-family="Arial" font-size="13" font-weight="900" letter-spacing="3">WEBFAEL AGENT OFFICE</text>
<text x="44" y="104" fill="#f8fafc" font-family="Arial" font-size="46" font-weight="900">Webfael Agent Office V3</text>
<text x="44" y="134" fill="#a3a3a3" font-family="Arial" font-size="16">Preview visual top-down gerado da mesma estrutura de mapa/agentes.</text>
<rect x="35" y="136" width="750" height="522" rx="28" fill="#1b160d" stroke="#facc15" stroke-opacity=".28" filter="url(#shadow)"/>
<rect x="69" y="170" width="36" height="36" rx="5" fill="#604832" stroke="#000" stroke-opacity=".28"/><rect x="107" y="170" width="36" height="36" rx="5" fill="#604832" stroke="#000" stroke-opacity=".28"/><rect x="145" y="170" width="36" height="36" rx="5" fill="#604832" stroke="#000" stroke-opacity=".28"/><rect x="183" y="170" width="36" height="36" rx="5" fill="#604832" stroke="#000" stroke-opacity=".28"/><rect x="221" y="170" width="36" height="36" rx="5" fill="#604832" stroke="#000" stroke-opacity=".28"/><rect x="259" y="170" width="36" height="36" rx="5" fill="#604832" stroke="#000" stroke-opacity=".28"/><rect x="297" y="170" width="36" height="36" rx="5" fill="#604832" stroke="#000" stroke-opacity=".28"/><rect x="335" y="170" width="36" height="36" rx="5" fill="#604832" stroke="#000" stroke-opacity=".28"/><rect x="373" y="170" width="36" height="36" rx="5" fill="#604832" stroke="#000" stroke-opacity=".28"/><rect x="411" y="170" width="36" height="36" rx="5" fill="#604832" stroke="#000" stroke-opacity=".28"/><rect x="449" y="170" width="36" height="36" rx="5" fill="#604832" stroke="#000" stroke-opacity=".28"/><rect x="487" y="170" width="36" height="36" rx="5" fill="#604832" stroke="#000" stroke-opacity=".28"/><rect x="525" y="170" width="36" height="36" rx="5" fill="#604832" stroke="#000" stroke-opacity=".28"/><rect x="563" y="170" width="36" height="36" rx="5" fill="#604832" stroke="#000" stroke-opacity=".28"/><rect x="601" y="170" width="36" height="36" rx="5" fill="#604832" stroke="#000" stroke-opacity=".28"/><rect x="639" y="170" width="36" height="36" rx="5" fill="#604832" stroke="#000" stroke-opacity=".28"/><rect x="677" y="170" width="36" height="36" rx="5" fill="#604832" stroke="#000" stroke-opacity=".28"/><rect x="715" y="170" width="36" height="36" rx="5" fill="#604832" stroke="#000" stroke-opacity=".28"/><rect x="69" y="208" width="36" height="36" rx="5" fill="#604832" stroke="#000" stroke-opacity=".28"/><rect x="107" y="208" width="36" height="36" rx="5" fill="#15803d" stroke="#000" stroke-opacity=".28"/><text x="125" y="233" text-anchor="middle" fill="#fef3c7" font-family="Arial" font-size="20" font-weight="900">♣</text><rect x="145" y="208" width="36" height="36" rx="5" fill="#bd8f59" stroke="#000" stroke-opacity=".28"/><rect x="183" y="208" width="36" height="36" rx="5" fill="#bd8f59" stroke="#000" stroke-opacity=".28"/><rect x="221" y="208" width="36" height="36" rx="5" fill="#bd8f59" stroke="#000" stroke-opacity=".28"/><rect x="259" y="208" width="36" height="36" rx="5" fill="#bd8f59" stroke="#000" stroke-opacity=".28"/><rect x="297" y="208" width="36" height="36" rx="5" fill="#020617" stroke="#000" stroke-opacity=".28"/><text x="315" y="233" text-anchor="middle" fill="#22c55e" font-family="Arial" font-size="20" font-weight="900">▥</text><rect x="335" y="208" width="36" height="36" rx="5" fill="#bd8f59" stroke="#000" stroke-opacity=".28"/><rect x="373" y="208" width="36" height="36" rx="5" fill="#bd8f59" stroke="#000" stroke-opacity=".28"/><rect x="411" y="208" width="36" height="36" rx="5" fill="#bd8f59" stroke="#000" stroke-opacity=".28"/><rect x="449" y="208" width="36" height="36" rx="5" fill="#bd8f59" stroke="#000" stroke-opacity=".28"/><rect x="487" y="208" width="36" height="36" rx="5" fill="#0f172a" stroke="#000" stroke-opacity=".28"/><text x="505" y="233" text-anchor="middle" fill="#67e8f9" font-family="Arial" font-size="20" font-weight="900">▣</text><rect x="525" y="208" width="36" height="36" rx="5" fill="#bd8f59" stroke="#000" stroke-opacity=".28"/><rect x="563" y="208" width="36" height="36" rx="5" fill="#bd8f59" stroke="#000" stroke-opacity=".28"/><rect x="601" y="208" width="36" height="36" rx="5" fill="#bd8f59" stroke="#000" stroke-opacity=".28"/><rect x="639" y="208" width="36" height="36" rx="5" fill="#bd8f59" stroke="#000" stroke-opacity=".28"/><rect x="677" y="208" width="36" height="36" rx="5" fill="#15803d" stroke="#000" stroke-opacity=".28"/><text x="695" y="233" text-anchor="middle" fill="#fef3c7" font-family="Arial" font-size="20" font-weight="900">♣</text><rect x="715" y="208" width="36" height="36" rx="5" fill="#604832" stroke="#000" stroke-opacity=".28"/><rect x="69" y="246" width="36" height="36" rx="5" fill="#604832" stroke="#000" stroke-opacity=".28"/><rect x="107" y="246" width="36" height="36" rx="5" fill="#bd8f59" stroke="#000" stroke-opacity=".28"/><rect x="145" y="246" width="36" height="36" rx="5" fill="#bd8f59" stroke="#000" stroke-opacity=".28"/><rect x="183" y="246" width="36" height="36" rx="5" fill="#8a520d" stroke="#000" stroke-opacity=".28"/><text x="201" y="271" text-anchor="middle" fill="#fef3c7" font-family="Arial" font-size="20" font-weight="900">▭</text><rect x="221" y="246" width="36" height="36" rx="5" fill="#8a520d" stroke="#000" stroke-opacity=".28"/><text x="239" y="271" text-anchor="middle" fill="#fef3c7" font-family="Arial" font-size="20" font-weight="900">▭</text><rect x="259" y="246" width="36" height="36" rx="5" fill="#bd8f59" stroke="#000" stroke-opacity=".28"/><rect x="297" y="246" width="36" height="36" rx="5" fill="#bd8f59" stroke="#000" stroke-opacity=".28"/><rect x="335" y="246" width="36" height="36" rx="5" fill="#bd8f59" stroke="#000" stroke-opacity=".28"/><rect x="373" y="246" width="36" height="36" rx="5" fill="#bd8f59" stroke="#000" stroke-opacity=".28"/><rect x="411" y="246" width="36" height="36" rx="5" fill="#bd8f59" stroke="#000" stroke-opacity=".28"/><rect x="449" y="246" width="36" height="36" rx="5" fill="#8a520d" stroke="#000" stroke-opacity=".28"/><text x="467" y="271" text-anchor="middle" fill="#fef3c7" font-family="Arial" font-size="20" font-weight="900">▭</text><rect x="487" y="246" width="36" height="36" rx="5" fill="#8a520d" stroke="#000" stroke-opacity=".28"/><text x="505" y="271" text-anchor="middle" fill="#fef3c7" font-family="Arial" font-size="20" font-weight="900">▭</text><rect x="525" y="246" width="36" height="36" rx="5" fill="#bd8f59" stroke="#000" stroke-opacity=".28"/><rect x="563" y="246" width="36" height="36" rx="5" fill="#bd8f59" stroke="#000" stroke-opacity=".28"/><rect x="601" y="246" width="36" height="36" rx="5" fill="#8a520d" stroke="#000" stroke-opacity=".28"/><text x="619" y="271" text-anchor="middle" fill="#fef3c7" font-family="Arial" font-size="20" font-weight="900">▭</text><rect x="639" y="246" width="36" height="36" rx="5" fill="#8a520d" stroke="#000" stroke-opacity=".28"/><text x="657" y="271" text-anchor="middle" fill="#fef3c7" font-family="Arial" font-size="20" font-weight="900">▭</text><rect x="677" y="246" width="36" height="36" rx="5" fill="#bd8f59" stroke="#000" stroke-opacity=".28"/><rect x="715" y="246" width="36" height="36" rx="5" fill="#604832" stroke="#000" stroke-opacity=".28"/><rect x="69" y="284" width="36" height="36" rx="5" fill="#604832" stroke="#000" stroke-opacity=".28"/><rect x="107" y="284" width="36" height="36" rx="5" fill="#bd8f59" stroke="#000" stroke-opacity=".28"/><rect x="145" y="284" width="36" height="36" rx="5" fill="#bd8f59" stroke="#000" stroke-opacity=".28"/><rect x="183" y="284" width="36" height="36" rx="5" fill="#0f172a" stroke="#000" stroke-opacity=".28"/><text x="201" y="309" text-anchor="middle" fill="#67e8f9" font-family="Arial" font-size="20" font-weight="900">▣</text><rect x="221" y="284" width="36" height="36" rx="5" fill="#c6922d" stroke="#000" stroke-opacity=".28"/><text x="239" y="309" text-anchor="middle" fill="#fef3c7" font-family="Arial" font-size="20" font-weight="900">◎</text><rect x="259" y="284" width="36" height="36" rx="5" fill="#bd8f59" stroke="#000" stroke-opacity=".28"/><rect x="297" y="284" width="36" height="36" rx="5" fill="#bd8f59" stroke="#000" stroke-opacity=".28"/><rect x="335" y="284" width="36" height="36" rx="5" fill="#8b5e18" stroke="#000" stroke-opacity=".28"/><rect x="373" y="284" width="36" height="36" rx="5" fill="#bd8f59" stroke="#000" stroke-opacity=".28"/><rect x="411" y="284" width="36" height="36" rx="5" fill="#bd8f59" stroke="#000" stroke-opacity=".28"/><rect x="449" y="284" width="36" height="36" rx="5" fill="#c6922d" stroke="#000" stroke-opacity=".28"/><text x="467" y="309" text-anchor="middle" fill="#fef3c7" font-family="Arial" font-size="20" font-weight="900">◎</text><rect x="487" y="284" width="36" height="36" rx="5" fill="#bd8f59" stroke="#000" stroke-opacity=".28"/><rect x="525" y="284" width="36" height="36" rx="5" fill="#bd8f59" stroke="#000" stroke-opacity=".28"/><rect x="563" y="284" width="36" height="36" rx="5" fill="#bd8f59" stroke="#000" stroke-opacity=".28"/><rect x="601" y="284" width="36" height="36" rx="5" fill="#c6922d" stroke="#000" stroke-opacity=".28"/><text x="619" y="309" text-anchor="middle" fill="#fef3c7" font-family="Arial" font-size="20" font-weight="900">◎</text><rect x="639" y="284" width="36" height="36" rx="5" fill="#0f172a" stroke="#000" stroke-opacity=".28"/><text x="657" y="309" text-anchor="middle" fill="#67e8f9" font-family="Arial" font-size="20" font-weight="900">▣</text><rect x="677" y="284" width="36" height="36" rx="5" fill="#bd8f59" stroke="#000" stroke-opacity=".28"/><rect x="715" y="284" width="36" height="36" rx="5" fill="#604832" stroke="#000" stroke-opacity=".28"/><rect x="69" y="322" width="36" height="36" rx="5" fill="#604832" stroke="#000" stroke-opacity=".28"/><rect x="107" y="322" width="36" height="36" rx="5" fill="#bd8f59" stroke="#000" stroke-opacity=".28"/><rect x="145" y="322" width="36" height="36" rx="5" fill="#bd8f59" stroke="#000" stroke-opacity=".28"/><rect x="183" y="322" width="36" height="36" rx="5" fill="#bd8f59" stroke="#000" stroke-opacity=".28"/><rect x="221" y="322" width="36" height="36" rx="5" fill="#bd8f59" stroke="#000" stroke-opacity=".28"/><rect x="259" y="322" width="36" height="36" rx="5" fill="#bd8f59" stroke="#000" stroke-opacity=".28"/><rect x="297" y="322" width="36" height="36" rx="5" fill="#bd8f59" stroke="#000" stroke-opacity=".28"/><rect x="335" y="322" width="36" height="36" rx="5" fill="#8b5e18" stroke="#000" stroke-opacity=".28"/><rect x="373" y="322" width="36" height="36" rx="5" fill="#8b5e18" stroke="#000" stroke-opacity=".28"/><rect x="411" y="322" width="36" height="36" rx="5" fill="#8b5e18" stroke="#000" stroke-opacity=".28"/><rect x="449" y="322" width="36" height="36" rx="5" fill="#8b5e18" stroke="#000" stroke-opacity=".28"/><rect x="487" y="322" width="36" height="36" rx="5" fill="#bd8f59" stroke="#000" stroke-opacity=".28"/><rect x="525" y="322" width="36" height="36" rx="5" fill="#bd8f59" stroke="#000" stroke-opacity=".28"/><rect x="563" y="322" width="36" height="36" rx="5" fill="#bd8f59" stroke="#000" stroke-opacity=".28"/><rect x="601" y="322" width="36" height="36" rx="5" fill="#bd8f59" stroke="#000" stroke-opacity=".28"/><rect x="639" y="322" width="36" height="36" rx="5" fill="#bd8f59" stroke="#000" stroke-opacity=".28"/><rect x="677" y="322" width="36" height="36" rx="5" fill="#bd8f59" stroke="#000" stroke-opacity=".28"/><rect x="715" y="322" width="36" height="36" rx="5" fill="#604832" stroke="#000" stroke-opacity=".28"/><rect x="69" y="360" width="36" height="36" rx="5" fill="#604832" stroke="#000" stroke-opacity=".28"/><rect x="107" y="360" width="36" height="36" rx="5" fill="#bd8f59" stroke="#000" stroke-opacity=".28"/><rect x="145" y="360" width="36" height="36" rx="5" fill="#bd8f59" stroke="#000" stroke-opacity=".28"/><rect x="183" y="360" width="36" height="36" rx="5" fill="#604832" stroke="#000" stroke-opacity=".28"/><rect x="221" y="360" width="36" height="36" rx="5" fill="#604832" stroke="#000" stroke-opacity=".28"/><rect x="259" y="360" width="36" height="36" rx="5" fill="#604832" stroke="#000" stroke-opacity=".28"/><rect x="297" y="360" width="36" height="36" rx="5" fill="#604832" stroke="#000" stroke-opacity=".28"/><rect x="335" y="360" width="36" height="36" rx="5" fill="#bd8f59" stroke="#000" stroke-opacity=".28"/><rect x="373" y="360" width="36" height="36" rx="5" fill="#bd8f59" stroke="#000" stroke-opacity=".28"/><rect x="411" y="360" width="36" height="36" rx="5" fill="#bd8f59" stroke="#000" stroke-opacity=".28"/><rect x="449" y="360" width="36" height="36" rx="5" fill="#bd8f59" stroke="#000" stroke-opacity=".28"/><rect x="487" y="360" width="36" height="36" rx="5" fill="#604832" stroke="#000" stroke-opacity=".28"/><rect x="525" y="360" width="36" height="36" rx="5" fill="#604832" stroke="#000" stroke-opacity=".28"/><rect x="563" y="360" width="36" height="36" rx="5" fill="#604832" stroke="#000" stroke-opacity=".28"/><rect x="601" y="360" width="36" height="36" rx="5" fill="#604832" stroke="#000" stroke-opacity=".28"/><rect x="639" y="360" width="36" height="36" rx="5" fill="#bd8f59" stroke="#000" stroke-opacity=".28"/><rect x="677" y="360" width="36" height="36" rx="5" fill="#bd8f59" stroke="#000" stroke-opacity=".28"/><rect x="715" y="360" width="36" height="36" rx="5" fill="#604832" stroke="#000" stroke-opacity=".28"/><rect x="69" y="398" width="36" height="36" rx="5" fill="#604832" stroke="#000" stroke-opacity=".28"/><rect x="107" y="398" width="36" height="36" rx="5" fill="#bd8f59" stroke="#000" stroke-opacity=".28"/><rect x="145" y="398" width="36" height="36" rx="5" fill="#bd8f59" stroke="#000" stroke-opacity=".28"/><rect x="183" y="398" width="36" height="36" rx="5" fill="#bd8f59" stroke="#000" stroke-opacity=".28"/><rect x="221" y="398" width="36" height="36" rx="5" fill="#bd8f59" stroke="#000" stroke-opacity=".28"/><rect x="259" y="398" width="36" height="36" rx="5" fill="#bd8f59" stroke="#000" stroke-opacity=".28"/><rect x="297" y="398" width="36" height="36" rx="5" fill="#bd8f59" stroke="#000" stroke-opacity=".28"/><rect x="335" y="398" width="36" height="36" rx="5" fill="#8b5e18" stroke="#000" stroke-opacity=".28"/><rect x="373" y="398" width="36" height="36" rx="5" fill="#8b5e18" stroke="#000" stroke-opacity=".28"/><rect x="411" y="398" width="36" height="36" rx="5" fill="#8b5e18" stroke="#000" stroke-opacity=".28"/><rect x="449" y="398" width="36" height="36" rx="5" fill="#8b5e18" stroke="#000" stroke-opacity=".28"/><rect x="487" y="398" width="36" height="36" rx="5" fill="#bd8f59" stroke="#000" stroke-opacity=".28"/><rect x="525" y="398" width="36" height="36" rx="5" fill="#bd8f59" stroke="#000" stroke-opacity=".28"/><rect x="563" y="398" width="36" height="36" rx="5" fill="#bd8f59" stroke="#000" stroke-opacity=".28"/><rect x="601" y="398" width="36" height="36" rx="5" fill="#bd8f59" stroke="#000" stroke-opacity=".28"/><rect x="639" y="398" width="36" height="36" rx="5" fill="#bd8f59" stroke="#000" stroke-opacity=".28"/><rect x="677" y="398" width="36" height="36" rx="5" fill="#bd8f59" stroke="#000" stroke-opacity=".28"/><rect x="715" y="398" width="36" height="36" rx="5" fill="#604832" stroke="#000" stroke-opacity=".28"/><rect x="69" y="436" width="36" height="36" rx="5" fill="#604832" stroke="#000" stroke-opacity=".28"/><rect x="107" y="436" width="36" height="36" rx="5" fill="#bd8f59" stroke="#000" stroke-opacity=".28"/><rect x="145" y="436" width="36" height="36" rx="5" fill="#bd8f59" stroke="#000" stroke-opacity=".28"/><rect x="183" y="436" width="36" height="36" rx="5" fill="#0f172a" stroke="#000" stroke-opacity=".28"/><text x="201" y="461" text-anchor="middle" fill="#67e8f9" font-family="Arial" font-size="20" font-weight="900">▣</text><rect x="221" y="436" width="36" height="36" rx="5" fill="#c6922d" stroke="#000" stroke-opacity=".28"/><text x="239" y="461" text-anchor="middle" fill="#fef3c7" font-family="Arial" font-size="20" font-weight="900">◎</text><rect x="259" y="436" width="36" height="36" rx="5" fill="#bd8f59" stroke="#000" stroke-opacity=".28"/><rect x="297" y="436" width="36" height="36" rx="5" fill="#bd8f59" stroke="#000" stroke-opacity=".28"/><rect x="335" y="436" width="36" height="36" rx="5" fill="#8b5e18" stroke="#000" stroke-opacity=".28"/><rect x="373" y="436" width="36" height="36" rx="5" fill="#bd8f59" stroke="#000" stroke-opacity=".28"/><rect x="411" y="436" width="36" height="36" rx="5" fill="#bd8f59" stroke="#000" stroke-opacity=".28"/><rect x="449" y="436" width="36" height="36" rx="5" fill="#c6922d" stroke="#000" stroke-opacity=".28"/><text x="467" y="461" text-anchor="middle" fill="#fef3c7" font-family="Arial" font-size="20" font-weight="900">◎</text><rect x="487" y="436" width="36" height="36" rx="5" fill="#bd8f59" stroke="#000" stroke-opacity=".28"/><rect x="525" y="436" width="36" height="36" rx="5" fill="#bd8f59" stroke="#000" stroke-opacity=".28"/><rect x="563" y="436" width="36" height="36" rx="5" fill="#bd8f59" stroke="#000" stroke-opacity=".28"/><rect x="601" y="436" width="36" height="36" rx="5" fill="#c6922d" stroke="#000" stroke-opacity=".28"/><text x="619" y="461" text-anchor="middle" fill="#fef3c7" font-family="Arial" font-size="20" font-weight="900">◎</text><rect x="639" y="436" width="36" height="36" rx="5" fill="#0f172a" stroke="#000" stroke-opacity=".28"/><text x="657" y="461" text-anchor="middle" fill="#67e8f9" font-family="Arial" font-size="20" font-weight="900">▣</text><rect x="677" y="436" width="36" height="36" rx="5" fill="#bd8f59" stroke="#000" stroke-opacity=".28"/><rect x="715" y="436" width="36" height="36" rx="5" fill="#604832" stroke="#000" stroke-opacity=".28"/><rect x="69" y="474" width="36" height="36" rx="5" fill="#604832" stroke="#000" stroke-opacity=".28"/><rect x="107" y="474" width="36" height="36" rx="5" fill="#bd8f59" stroke="#000" stroke-opacity=".28"/><rect x="145" y="474" width="36" height="36" rx="5" fill="#bd8f59" stroke="#000" stroke-opacity=".28"/><rect x="183" y="474" width="36" height="36" rx="5" fill="#8a520d" stroke="#000" stroke-opacity=".28"/><text x="201" y="499" text-anchor="middle" fill="#fef3c7" font-family="Arial" font-size="20" font-weight="900">▭</text><rect x="221" y="474" width="36" height="36" rx="5" fill="#8a520d" stroke="#000" stroke-opacity=".28"/><text x="239" y="499" text-anchor="middle" fill="#fef3c7" font-family="Arial" font-size="20" font-weight="900">▭</text><rect x="259" y="474" width="36" height="36" rx="5" fill="#bd8f59" stroke="#000" stroke-opacity=".28"/><rect x="297" y="474" width="36" height="36" rx="5" fill="#bd8f59" stroke="#000" stroke-opacity=".28"/><rect x="335" y="474" width="36" height="36" rx="5" fill="#bd8f59" stroke="#000" stroke-opacity=".28"/><rect x="373" y="474" width="36" height="36" rx="5" fill="#bd8f59" stroke="#000" stroke-opacity=".28"/><rect x="411" y="474" width="36" height="36" rx="5" fill="#bd8f59" stroke="#000" stroke-opacity=".28"/><rect x="449" y="474" width="36" height="36" rx="5" fill="#8a520d" stroke="#000" stroke-opacity=".28"/><text x="467" y="499" text-anchor="middle" fill="#fef3c7" font-family="Arial" font-size="20" font-weight="900">▭</text><rect x="487" y="474" width="36" height="36" rx="5" fill="#8a520d" stroke="#000" stroke-opacity=".28"/><text x="505" y="499" text-anchor="middle" fill="#fef3c7" font-family="Arial" font-size="20" font-weight="900">▭</text><rect x="525" y="474" width="36" height="36" rx="5" fill="#bd8f59" stroke="#000" stroke-opacity=".28"/><rect x="563" y="474" width="36" height="36" rx="5" fill="#bd8f59" stroke="#000" stroke-opacity=".28"/><rect x="601" y="474" width="36" height="36" rx="5" fill="#8a520d" stroke="#000" stroke-opacity=".28"/><text x="619" y="499" text-anchor="middle" fill="#fef3c7" font-family="Arial" font-size="20" font-weight="900">▭</text><rect x="639" y="474" width="36" height="36" rx="5" fill="#8a520d" stroke="#000" stroke-opacity=".28"/><text x="657" y="499" text-anchor="middle" fill="#fef3c7" font-family="Arial" font-size="20" font-weight="900">▭</text><rect x="677" y="474" width="36" height="36" rx="5" fill="#bd8f59" stroke="#000" stroke-opacity=".28"/><rect x="715" y="474" width="36" height="36" rx="5" fill="#604832" stroke="#000" stroke-opacity=".28"/><rect x="69" y="512" width="36" height="36" rx="5" fill="#604832" stroke="#000" stroke-opacity=".28"/><rect x="107" y="512" width="36" height="36" rx="5" fill="#15803d" stroke="#000" stroke-opacity=".28"/><text x="125" y="537" text-anchor="middle" fill="#fef3c7" font-family="Arial" font-size="20" font-weight="900">♣</text><rect x="145" y="512" width="36" height="36" rx="5" fill="#bd8f59" stroke="#000" stroke-opacity=".28"/><rect x="183" y="512" width="36" height="36" rx="5" fill="#bd8f59" stroke="#000" stroke-opacity=".28"/><rect x="221" y="512" width="36" height="36" rx="5" fill="#bd8f59" stroke="#000" stroke-opacity=".28"/><rect x="259" y="512" width="36" height="36" rx="5" fill="#bd8f59" stroke="#000" stroke-opacity=".28"/><rect x="297" y="512" width="36" height="36" rx="5" fill="#020617" stroke="#000" stroke-opacity=".28"/><text x="315" y="537" text-anchor="middle" fill="#22c55e" font-family="Arial" font-size="20" font-weight="900">▥</text><rect x="335" y="512" width="36" height="36" rx="5" fill="#bd8f59" stroke="#000" stroke-opacity=".28"/><rect x="373" y="512" width="36" height="36" rx="5" fill="#bd8f59" stroke="#000" stroke-opacity=".28"/><rect x="411" y="512" width="36" height="36" rx="5" fill="#bd8f59" stroke="#000" stroke-opacity=".28"/><rect x="449" y="512" width="36" height="36" rx="5" fill="#bd8f59" stroke="#000" stroke-opacity=".28"/><rect x="487" y="512" width="36" height="36" rx="5" fill="#0f172a" stroke="#000" stroke-opacity=".28"/><text x="505" y="537" text-anchor="middle" fill="#67e8f9" font-family="Arial" font-size="20" font-weight="900">▣</text><rect x="525" y="512" width="36" height="36" rx="5" fill="#bd8f59" stroke="#000" stroke-opacity=".28"/><rect x="563" y="512" width="36" height="36" rx="5" fill="#bd8f59" stroke="#000" stroke-opacity=".28"/><rect x="601" y="512" width="36" height="36" rx="5" fill="#bd8f59" stroke="#000" stroke-opacity=".28"/><rect x="639" y="512" width="36" height="36" rx="5" fill="#bd8f59" stroke="#000" stroke-opacity=".28"/><rect x="677" y="512" width="36" height="36" rx="5" fill="#15803d" stroke="#000" stroke-opacity=".28"/><text x="695" y="537" text-anchor="middle" fill="#fef3c7" font-family="Arial" font-size="20" font-weight="900">♣</text><rect x="715" y="512" width="36" height="36" rx="5" fill="#604832" stroke="#000" stroke-opacity=".28"/><rect x="69" y="550" width="36" height="36" rx="5" fill="#604832" stroke="#000" stroke-opacity=".28"/><rect x="107" y="550" width="36" height="36" rx="5" fill="#78350f" stroke="#000" stroke-opacity=".28"/><text x="125" y="575" text-anchor="middle" fill="#fef3c7" font-family="Arial" font-size="20" font-weight="900">═</text><rect x="145" y="550" width="36" height="36" rx="5" fill="#78350f" stroke="#000" stroke-opacity=".28"/><text x="163" y="575" text-anchor="middle" fill="#fef3c7" font-family="Arial" font-size="20" font-weight="900">═</text><rect x="183" y="550" width="36" height="36" rx="5" fill="#78350f" stroke="#000" stroke-opacity=".28"/><text x="201" y="575" text-anchor="middle" fill="#fef3c7" font-family="Arial" font-size="20" font-weight="900">═</text><rect x="221" y="550" width="36" height="36" rx="5" fill="#78350f" stroke="#000" stroke-opacity=".28"/><text x="239" y="575" text-anchor="middle" fill="#fef3c7" font-family="Arial" font-size="20" font-weight="900">═</text><rect x="259" y="550" width="36" height="36" rx="5" fill="#78350f" stroke="#000" stroke-opacity=".28"/><text x="277" y="575" text-anchor="middle" fill="#fef3c7" font-family="Arial" font-size="20" font-weight="900">═</text><rect x="297" y="550" width="36" height="36" rx="5" fill="#78350f" stroke="#000" stroke-opacity=".28"/><text x="315" y="575" text-anchor="middle" fill="#fef3c7" font-family="Arial" font-size="20" font-weight="900">═</text><rect x="335" y="550" width="36" height="36" rx="5" fill="#78350f" stroke="#000" stroke-opacity=".28"/><text x="353" y="575" text-anchor="middle" fill="#fef3c7" font-family="Arial" font-size="20" font-weight="900">═</text><rect x="373" y="550" width="36" height="36" rx="5" fill="#bd8f59" stroke="#000" stroke-opacity=".28"/><rect x="411" y="550" width="36" height="36" rx="5" fill="#bd8f59" stroke="#000" stroke-opacity=".28"/><rect x="449" y="550" width="36" height="36" rx="5" fill="#78350f" stroke="#000" stroke-opacity=".28"/><text x="467" y="575" text-anchor="middle" fill="#fef3c7" font-family="Arial" font-size="20" font-weight="900">═</text><rect x="487" y="550" width="36" height="36" rx="5" fill="#78350f" stroke="#000" stroke-opacity=".28"/><text x="505" y="575" text-anchor="middle" fill="#fef3c7" font-family="Arial" font-size="20" font-weight="900">═</text><rect x="525" y="550" width="36" height="36" rx="5" fill="#78350f" stroke="#000" stroke-opacity=".28"/><text x="543" y="575" text-anchor="middle" fill="#fef3c7" font-family="Arial" font-size="20" font-weight="900">═</text><rect x="563" y="550" width="36" height="36" rx="5" fill="#78350f" stroke="#000" stroke-opacity=".28"/><text x="581" y="575" text-anchor="middle" fill="#fef3c7" font-family="Arial" font-size="20" font-weight="900">═</text><rect x="601" y="550" width="36" height="36" rx="5" fill="#78350f" stroke="#000" stroke-opacity=".28"/><text x="619" y="575" text-anchor="middle" fill="#fef3c7" font-family="Arial" font-size="20" font-weight="900">═</text><rect x="639" y="550" width="36" height="36" rx="5" fill="#78350f" stroke="#000" stroke-opacity=".28"/><text x="657" y="575" text-anchor="middle" fill="#fef3c7" font-family="Arial" font-size="20" font-weight="900">═</text><rect x="677" y="550" width="36" height="36" rx="5" fill="#78350f" stroke="#000" stroke-opacity=".28"/><text x="695" y="575" text-anchor="middle" fill="#fef3c7" font-family="Arial" font-size="20" font-weight="900">═</text><rect x="715" y="550" width="36" height="36" rx="5" fill="#604832" stroke="#000" stroke-opacity=".28"/><rect x="69" y="588" width="36" height="36" rx="5" fill="#604832" stroke="#000" stroke-opacity=".28"/><rect x="107" y="588" width="36" height="36" rx="5" fill="#604832" stroke="#000" stroke-opacity=".28"/><rect x="145" y="588" width="36" height="36" rx="5" fill="#604832" stroke="#000" stroke-opacity=".28"/><rect x="183" y="588" width="36" height="36" rx="5" fill="#604832" stroke="#000" stroke-opacity=".28"/><rect x="221" y="588" width="36" height="36" rx="5" fill="#604832" stroke="#000" stroke-opacity=".28"/><rect x="259" y="588" width="36" height="36" rx="5" fill="#604832" stroke="#000" stroke-opacity=".28"/><rect x="297" y="588" width="36" height="36" rx="5" fill="#604832" stroke="#000" stroke-opacity=".28"/><rect x="335" y="588" width="36" height="36" rx="5" fill="#604832" stroke="#000" stroke-opacity=".28"/><rect x="373" y="588" width="36" height="36" rx="5" fill="#604832" stroke="#000" stroke-opacity=".28"/><rect x="411" y="588" width="36" height="36" rx="5" fill="#604832" stroke="#000" stroke-opacity=".28"/><rect x="449" y="588" width="36" height="36" rx="5" fill="#604832" stroke="#000" stroke-opacity=".28"/><rect x="487" y="588" width="36" height="36" rx="5" fill="#604832" stroke="#000" stroke-opacity=".28"/><rect x="525" y="588" width="36" height="36" rx="5" fill="#604832" stroke="#000" stroke-opacity=".28"/><rect x="563" y="588" width="36" height="36" rx="5" fill="#604832" stroke="#000" stroke-opacity=".28"/><rect x="601" y="588" width="36" height="36" rx="5" fill="#604832" stroke="#000" stroke-opacity=".28"/><rect x="639" y="588" width="36" height="36" rx="5" fill="#604832" stroke="#000" stroke-opacity=".28"/><rect x="677" y="588" width="36" height="36" rx="5" fill="#604832" stroke="#000" stroke-opacity=".28"/><rect x="715" y="588" width="36" height="36" rx="5" fill="#604832" stroke="#000" stroke-opacity=".28"/><ellipse cx="391" cy="327" rx="19" ry="7" fill="#000" opacity=".38"/><rect x="359" y="244" width="64" height="20" rx="10" fill="#020617" stroke="#ffffff" stroke-opacity=".18"/><circle cx="369" cy="254" r="5" fill="#22c55e"/><text x="379" y="258" fill="#fff" font-family="Arial" font-size="10" font-weight="900">WebCEO</text><rect x="378" y="284" width="26" height="22" rx="7" fill="#f6cda8"/><rect x="375" y="280" width="32" height="12" rx="6" fill="#111827"/><rect x="373" y="307" width="36" height="27" rx="8" fill="#facc15" stroke="#fff" stroke-opacity=".7" stroke-width="2"/><text x="391" y="325" text-anchor="middle" fill="#050505" font-family="Arial" font-size="10" font-weight="900">CEO</text><ellipse cx="239" cy="479" rx="19" ry="7" fill="#000" opacity=".38"/><rect x="207" y="396" width="64" height="20" rx="10" fill="#020617" stroke="#ffffff" stroke-opacity=".18"/><circle cx="217" cy="406" r="5" fill="#22c55e"/><text x="227" y="410" fill="#fff" font-family="Arial" font-size="10" font-weight="900">WebIxtepo</text><rect x="226" y="436" width="26" height="22" rx="7" fill="#f6cda8"/><rect x="223" y="432" width="32" height="12" rx="6" fill="#111827"/><rect x="221" y="459" width="36" height="27" rx="8" fill="#38bdf8" stroke="#fff" stroke-opacity=".7" stroke-width="2"/><text x="239" y="477" text-anchor="middle" fill="#050505" font-family="Arial" font-size="10" font-weight="900">IX</text><ellipse cx="543" cy="479" rx="19" ry="7" fill="#000" opacity=".38"/><rect x="511" y="396" width="64" height="20" rx="10" fill="#020617" stroke="#ffffff" stroke-opacity=".18"/><circle cx="521" cy="406" r="5" fill="#22c55e"/><text x="531" y="410" fill="#fff" font-family="Arial" font-size="10" font-weight="900">WebRafa</text><rect x="530" y="436" width="26" height="22" rx="7" fill="#f6cda8"/><rect x="527" y="432" width="32" height="12" rx="6" fill="#111827"/><rect x="525" y="459" width="36" height="27" rx="8" fill="#fb7185" stroke="#fff" stroke-opacity=".7" stroke-width="2"/><text x="543" y="477" text-anchor="middle" fill="#050505" font-family="Arial" font-size="10" font-weight="900">RF</text><ellipse cx="657" cy="327" rx="19" ry="7" fill="#000" opacity=".38"/><rect x="625" y="244" width="64" height="20" rx="10" fill="#020617" stroke="#ffffff" stroke-opacity=".18"/><circle cx="635" cy="254" r="5" fill="#22c55e"/><text x="645" y="258" fill="#fff" font-family="Arial" font-size="10" font-weight="900">WebLia</text><rect x="644" y="284" width="26" height="22" rx="7" fill="#f6cda8"/><rect x="641" y="280" width="32" height="12" rx="6" fill="#111827"/><rect x="639" y="307" width="36" height="27" rx="8" fill="#a78bfa" stroke="#fff" stroke-opacity=".7" stroke-width="2"/><text x="657" y="325" text-anchor="middle" fill="#050505" font-family="Arial" font-size="10" font-weight="900">LIA</text><rect x="760" y="170" width="296" height="470" rx="24" fill="#101010" stroke="#fff" stroke-opacity=".12" filter="url(#shadow)"/><text x="784" y="210" fill="#facc15" font-family="Arial" font-size="12" font-weight="900" letter-spacing="2">HUD</text><text x="784" y="248" fill="#fff" font-family="Arial" font-size="30" font-weight="900">Operação Webfael</text><text x="784" y="278" fill="#a3a3a3" font-family="Arial" font-size="14">18x12 tiles · CSS tilemap</text><rect x="784" y="308" width="248" height="50" rx="14" fill="#ffffff" opacity=".05" stroke="#ffffff" stroke-opacity=".08"/><circle cx="803" cy="333" r="7" fill="#facc15"/><text x="820" y="330" fill="#fff" font-family="Arial" font-size="15" font-weight="900">WebCEO</text><text x="820" y="348" fill="#a3a3a3" font-family="Arial" font-size="11">ativo no mapa</text><rect x="784" y="372" width="248" height="50" rx="14" fill="#ffffff" opacity=".05" stroke="#ffffff" stroke-opacity=".08"/><circle cx="803" cy="397" r="7" fill="#38bdf8"/><text x="820" y="394" fill="#fff" font-family="Arial" font-size="15" font-weight="900">WebIxtepo</text><text x="820" y="412" fill="#a3a3a3" font-family="Arial" font-size="11">ativo no mapa</text><rect x="784" y="436" width="248" height="50" rx="14" fill="#ffffff" opacity=".05" stroke="#ffffff" stroke-opacity=".08"/><circle cx="803" cy="461" r="7" fill="#fb7185"/><text x="820" y="458" fill="#fff" font-family="Arial" font-size="15" font-weight="900">WebRafa</text><text x="820" y="476" fill="#a3a3a3" font-family="Arial" font-size="11">ativo no mapa</text><rect x="784" y="500" width="248" height="50" rx="14" fill="#ffffff" opacity=".05" stroke="#ffffff" stroke-opacity=".08"/><circle cx="803" cy="525" r="7" fill="#a78bfa"/><text x="820" y="522" fill="#fff" font-family="Arial" font-size="15" font-weight="900">WebLia</text><text x="820" y="540" fill="#a3a3a3" font-family="Arial" font-size="11">ativo no mapa</text><text x="44" y="720" fill="#a3a3a3" font-family="Arial" font-size="12">Arquivo de evidência visual: artifacts/agent-office-v3-preview.svg · Screenshot real bloqueado por dependência do Chromium no host.</text></svg>